<svg width="24" height="24" viewBox="0 0 24 24" fill="none" xmlns="http://www.w3.org/2000/svg">
<path d="M21.6 12.2273C21.6 11.5182 21.5364 10.8364 21.4182 10.1819H12V14.0546H17.3818C17.1455 15.3001 16.4364 16.3546 15.3727 17.0637V19.5819H18.6182C20.5091 17.8364 21.6 15.2728 21.6 12.2273Z" fill="#4285F4"/>
<path d="M12 22.0001C14.7 22.0001 16.9636 21.1092 18.6182 19.5819L15.3727 17.0637C14.4818 17.6637 13.3455 18.0274 12 18.0274C9.4 18.0274 7.19091 16.2728 6.4 13.9092H3.07272V16.491C4.71818 19.7546 8.0909 22.0001 12 22.0001Z" fill="#34A853"/>
<path d="M6.4 13.9001C6.2 13.3001 6.08182 12.6638 6.08182 12.0001C6.08182 11.3365 6.2 10.7001 6.4 10.1001V7.51831H3.07273C2.39091 8.86377 2 10.3819 2 12.0001C2 13.6183 2.39091 15.1365 3.07273 16.4819L5.66364 14.4638L6.4 13.9001Z" fill="#FBBC05"/>
<path d="M12 5.98182C13.4727 5.98182 14.7818 6.49091 15.8273 7.47273L18.6909 4.60909C16.9545 2.99091 14.7 2 12 2C8.0909 2 4.71818 4.24545 3.07272 7.51818L6.4 10.1C7.19091 7.73636 9.4 5.98182 12 5.98182Z" fill="#EA4335"/>
</svg>
