<svg width="24" height="24" viewBox="0 0 24 24" fill="none" xmlns="http://www.w3.org/2000/svg">
<circle cx="12" cy="12" r="12" fill="#FFE812"/>
<path d="M11.9388 6C8.65886 6 6 8.11162 6 10.7164C6 12.4004 7.11158 13.8781 8.78369 14.7125C8.69272 15.0285 8.19912 16.7454 8.17947 16.8803C8.17947 16.8803 8.16765 16.9816 8.23281 17.0203C8.29796 17.0589 8.3746 17.0289 8.3746 17.0289C8.56144 17.0026 10.5413 15.6018 10.884 15.3586C11.2263 15.4074 11.5788 15.4328 11.9388 15.4328C15.2187 15.4328 17.8776 13.3212 17.8776 10.7164C17.8776 8.11162 15.2187 6 11.9388 6Z" fill="#1A1A1A"/>
</svg>
