<svg width="current" height="current" viewBox="0 0 24 24" fill="none" xmlns="http://www.w3.org/2000/svg">
<path d="M3 9H21V19C21 19.5304 20.7893 20.0391 20.4142 20.4142C20.0391 20.7893 19.5304 21 19 21H5C4.46957 21 3.96086 20.7893 3.58579 20.4142C3.21071 20.0391 3 19.5304 3 19V9Z" stroke="currentColor" stroke-width="2" stroke-linecap="round" stroke-linejoin="round"/>
<path d="M12 20.5V9" stroke="currentColor" stroke-width="2" stroke-linecap="round" stroke-linejoin="round"/>
<path d="M9.24911 3.00006C11.7864 3.5642 12.1372 7.00006 11.9567 9.00006C11.9567 9.00006 7.00001 7.50006 6.50001 6.00006C6.00001 4.50006 7 2.5 9.24911 3.00006Z" stroke="currentColor" stroke-width="2"/>
<path d="M14.7476 3.00006C12.2103 3.5642 11.8595 7.00006 12.04 9.00006C12.04 9.00006 16.9967 7.50006 17.4967 6.00006C17.9967 4.50006 16.9967 2.5 14.7476 3.00006Z" stroke="currentColor" stroke-width="2"/>
</svg>
