<svg width="25" height="24" viewBox="0 0 25 24" fill="none" stroke="currentColor" xmlns="http://www.w3.org/2000/svg">
<path d="M17 2.8252C15.26 2.8252 13.59 3.6352 12.5 4.9152C11.41 3.6352 9.74 2.8252 8 2.8252C4.92 2.8252 2.5 5.2452 2.5 8.3252C2.5 12.1052 5.9 15.1852 11.05 19.8652L12.5 21.1752L13.95 19.8552C19.1 15.1852 22.5 12.1052 22.5 8.3252C22.5 5.2452 20.08 2.8252 17 2.8252ZM12.6 18.3752L12.5 18.4752L12.4 18.3752C7.64 14.0652 4.5 11.2152 4.5 8.3252C4.5 6.3252 6 4.8252 8 4.8252C9.54 4.8252 11.04 5.8152 11.57 7.1852H13.44C13.96 5.8152 15.46 4.8252 17 4.8252C19 4.8252 20.5 6.3252 20.5 8.3252C20.5 11.2152 17.36 14.0652 12.6 18.3752Z" fill="#1A1A1A"/>
</svg>
